<?xml version="1.0"?>
<svg xmlns="http://www.w3.org/2000/svg" xmlns:xlink="http://www.w3.org/1999/xlink" xmlns:svgjs="http://svgjs.com/svgjs" version="1.1" width="512px" height="512px" x="0" y="0" viewBox="0 0 24 24" style="enable-background:new 0 0 512 512" xml:space="preserve"><g><g id="_01_align_center" data-name="01 align center"><path d="M21,2H18V0H16V2H8V0H6V2H3A3,3,0,0,0,0,5V24H24V5A3,3,0,0,0,21,2ZM2,5A1,1,0,0,1,3,4H21a1,1,0,0,1,1,1V8H2ZM2,22V10H22V22Z" fill="#81c784" data-original="#000000"/><rect x="15" y="13" width="2" height="2" fill="#81c784" data-original="#000000"/><rect x="11" y="13" width="2" height="2" fill="#81c784" data-original="#000000"/><rect x="7" y="13" width="2" height="2" fill="#81c784" data-original="#000000"/><rect x="15" y="17" width="2" height="2" fill="#81c784" data-original="#000000"/><rect x="11" y="17" width="2" height="2" fill="#81c784" data-original="#000000"/><rect x="7" y="17" width="2" height="2" fill="#81c784" data-original="#000000"/></g></g></svg>
