<?xml version="1.0"?>
<svg xmlns="http://www.w3.org/2000/svg" xmlns:xlink="http://www.w3.org/1999/xlink" xmlns:svgjs="http://svgjs.com/svgjs" version="1.1" width="512px" height="512px" x="0" y="0" viewBox="0 0 24 24" style="enable-background:new 0 0 512 512" xml:space="preserve"><g><path d="M22.5,21H5.5A2.5,2.5,0,0,1,3,18.5V1.5a1.5,1.5,0,0,0-3,0v17A5.506,5.506,0,0,0,5.5,24h17a1.5,1.5,0,0,0,0-3Z" fill="#81c784" data-original="#000000"/><path d="M9.5,9A1.5,1.5,0,0,0,8,10.5v7a1.5,1.5,0,0,0,3,0v-7A1.5,1.5,0,0,0,9.5,9Z" fill="#81c784" data-original="#000000"/><path d="M14,13.5v4a1.5,1.5,0,0,0,3,0v-4a1.5,1.5,0,0,0-3,0Z" fill="#81c784" data-original="#000000"/><path d="M20,9.5v8a1.5,1.5,0,0,0,3,0v-8a1.5,1.5,0,0,0-3,0Z" fill="#81c784" data-original="#000000"/><path d="M6,7.5a1.487,1.487,0,0,0,.936-.329L9.214,5.35a2.392,2.392,0,0,1,3.191.176,5.43,5.43,0,0,0,7.3.3l3.764-3.185A1.5,1.5,0,1,0,21.531.355L17.768,3.54A2.411,2.411,0,0,1,14.526,3.4a5.389,5.389,0,0,0-7.186-.4L5.063,4.829A1.5,1.5,0,0,0,6,7.5Z" fill="#81c784" data-original="#000000"/></g></svg>
